<svg xmlns="http://www.w3.org/2000/svg" viewBox="0 0 18 15"><defs><style>.cls-1{fill:#ededec;}</style></defs><g id="レイヤー_2" data-name="レイヤー 2"><g id="レイヤー_1-2" data-name="レイヤー 1"><path id="パス_233" data-name="パス 233" class="cls-1" d="M5.66,15c6.79,0,10.51-5.77,10.51-10.78,0-.16,0-.32,0-.49a7.63,7.63,0,0,0,1.84-2,7.14,7.14,0,0,1-2.12.6A3.78,3.78,0,0,0,17.5.27a7.11,7.11,0,0,1-2.35.92A3.63,3.63,0,0,0,10,.94L9.93,1A3.86,3.86,0,0,0,8.86,4.65a10.4,10.4,0,0,1-7.61-4A3.86,3.86,0,0,0,2.4,5.75,3.58,3.58,0,0,1,.72,5.27v.05A3.78,3.78,0,0,0,3.69,9,3.5,3.5,0,0,1,2,9.1a3.7,3.7,0,0,0,3.45,2.63A7.29,7.29,0,0,1,0,13.3,10.27,10.27,0,0,0,5.66,15"/></g></g></svg>