<svg xmlns="http://www.w3.org/2000/svg" viewBox="0 0 15.95 16.45"><defs><style>.cls-1{fill:#ededec;}</style></defs><g id="レイヤー_2" data-name="レイヤー 2"><g id="レイヤー_1-2" data-name="レイヤー 1"><g id="グループ_381" data-name="グループ 381"><path id="パス_234" data-name="パス 234" class="cls-1" d="M11.36,0H4.58A4.61,4.61,0,0,0,0,4.65V11.8a4.61,4.61,0,0,0,4.58,4.65h6.78A4.63,4.63,0,0,0,16,11.8V4.65A4.63,4.63,0,0,0,11.36,0ZM1.63,4.65a3,3,0,0,1,3-3h6.78a3,3,0,0,1,3,3V11.8a3,3,0,0,1-3,3H4.58a3,3,0,0,1-2.95-3Z"/><path id="パス_235" data-name="パス 235" class="cls-1" d="M8,12.3A4.08,4.08,0,1,0,4,8.11v.12A4,4,0,0,0,8,12.3ZM8,5.42A2.8,2.8,0,1,1,5.25,8.3V8.22A2.77,2.77,0,0,1,8,5.42Z"/><circle id="楕円形_50" data-name="楕円形 50" class="cls-1" cx="12.24" cy="3.89" r="0.99"/></g></g></g></svg>