<svg xmlns="http://www.w3.org/2000/svg" width="43" height="43" viewBox="0 0 43 43">
    <g id="楕円形_51" data-name="楕円形 51" fill="none" stroke="#fff" stroke-width="1">
        <circle cx="21.5" cy="21.5" r="21.5" stroke="none"/>
        <circle cx="21.5" cy="21.5" r="21" fill="none"/>
    </g>
    <path id="パス_236" data-name="パス 236" d="M77.558,26.127H74.189c-1.438,0-1.714-.242-1.714-.63,0-.442.719-1.216.885-1.493a5.756,5.756,0,0,0,1.438-2.6c.221-1.383-1.438-2.378-1.991-1.438A9.955,9.955,0,0,1,70.65,22.9c-.876.807-3.63,2.576-4.592,3.631-.948,1.04-1.959.606-3.058.606v7.254c1.585,0,7.529,1.762,8.8,2.017,1.441.288,3.323.925,4.323-.432.616-.837,1.581-4.085,2.306-6.388C80.268,27.82,79,26.127,77.558,26.127Z" transform="translate(-49.5 -7.099)" fill="none" stroke="#fff" stroke-miterlimit="10" stroke-width="1"/>
</svg>
