<svg xmlns="http://www.w3.org/2000/svg" width="14.425" height="12.7" viewBox="0 0 14.425 12.7">
    <g id="グループ_341" data-name="グループ 341" transform="translate(0.35 -31.821)">
      <path id="パス_226" data-name="パス 226" d="M10.2,32.171a3.323,3.323,0,0,0-3.341,2.865,3.323,3.323,0,0,0-3.341-2.865C1.594,32.134,0,33.617,0,36.323,0,39.8,3.929,41.4,6.616,44c.094.09.072.088.072.088a.225.225,0,0,0,.174.086h0a.225.225,0,0,0,.174-.086s-.022,0,.072-.088c2.687-2.595,6.616-4.2,6.616-7.673C13.725,33.617,12.131,32.134,10.2,32.171Z" transform="translate(0 0)" fill="none" stroke="#ae1679" stroke-miterlimit="10" stroke-width="0.7"/>
    </g>
  </svg>
