<svg id="LINE_LOGO" data-name="LINE LOGO" xmlns="http://www.w3.org/2000/svg" width="31.022" height="31.022" viewBox="0 0 31.022 31.022">
  <g id="FULL_COLOR_ICON" data-name="FULL COLOR ICON" transform="translate(0 0)">
    <path id="パス_6" data-name="パス 6" d="M24.3,31.022H6.722A6.708,6.708,0,0,1,0,24.3V6.722A6.708,6.708,0,0,1,6.722,0H24.3a6.708,6.708,0,0,1,6.722,6.722V24.3A6.708,6.708,0,0,1,24.3,31.022Z" transform="translate(0)" fill="#3aae36"/>
    <g id="TYPE_A" data-name="TYPE A" transform="translate(4.162 4.964)">
      <g id="グループ_41" data-name="グループ 41">
        <path id="パス_7" data-name="パス 7" d="M38.695,28.377c0-5.067-5.067-9.177-11.3-9.177s-11.3,4.11-11.3,9.177c0,4.524,4.007,8.324,9.436,9.048.362.078.879.233.982.569a2.319,2.319,0,0,1,.026,1.034s-.129.8-.155.957c-.052.284-.233,1.112.982.62a35.94,35.94,0,0,0,8.867-6.566h0a8.1,8.1,0,0,0,2.456-5.662" transform="translate(-16.1 -19.2)" fill="#fff"/>
        <g id="グループ_40" data-name="グループ 40" transform="translate(3.671 6.696)">
          <path id="パス_8" data-name="パス 8" d="M47.934,45.3h-.8a.228.228,0,0,0-.233.207v4.912a.211.211,0,0,0,.233.207h.8a.228.228,0,0,0,.233-.207V45.507a.228.228,0,0,0-.233-.207" transform="translate(-42.609 -45.248)" fill="#3aae36"/>
          <path id="パス_9" data-name="パス 9" d="M59.469,45.3h-.776a.228.228,0,0,0-.233.207v2.921l-2.249-3.051a.025.025,0,0,0-.026-.026h0l-.026-.026h-.827a.228.228,0,0,0-.233.207v4.912a.211.211,0,0,0,.233.207h.8a.228.228,0,0,0,.233-.207V47.523l2.249,3.051c.026.026.026.052.052.052h.8a.228.228,0,0,0,.233-.207V45.507a.228.228,0,0,0-.233-.207" transform="translate(-48.689 -45.248)" fill="#3aae36"/>
          <path id="パス_10" data-name="パス 10" d="M33.712,49.336H31.567v-3.9a.232.232,0,0,0-.233-.233h-.8a.232.232,0,0,0-.233.233v4.912h0a.367.367,0,0,0,.052.155h0a.367.367,0,0,0,.155.052h3.154a.211.211,0,0,0,.207-.233v-.8c.078-.078-.026-.181-.155-.181" transform="translate(-30.3 -45.174)" fill="#3aae36"/>
          <path id="パス_11" data-name="パス 11" d="M79.261,46.367a.211.211,0,0,0,.207-.233v-.8a.228.228,0,0,0-.207-.233H76.107a.367.367,0,0,0-.155.052h0a.367.367,0,0,0-.052.155h0v4.912h0a.368.368,0,0,0,.052.155h0a.367.367,0,0,0,.155.052h3.154a.211.211,0,0,0,.207-.233v-.8a.228.228,0,0,0-.207-.233H77.115v-.724h2.146a.211.211,0,0,0,.207-.233v-.8a.228.228,0,0,0-.207-.233H77.115v-.8Z" transform="translate(-64.112 -45.1)" fill="#3aae36"/>
        </g>
      </g>
    </g>
  </g>
</svg>
