<svg xmlns="http://www.w3.org/2000/svg" width="73.815" height="37.5" viewBox="0 0 73.815 37.5">
  <g id="グループ_44" data-name="グループ 44" transform="translate(1 -128.453)">
    <path id="パス_15" data-name="パス 15" d="M39.936,129.453H3.555A3.552,3.552,0,0,0,0,133.006V161.4a3.554,3.554,0,0,0,3.555,3.555H39.936a3.554,3.554,0,0,0,3.555-3.555V133.006A3.552,3.552,0,0,0,39.936,129.453Z" transform="translate(0)" fill="none" stroke="#fff" stroke-width="2"/>
    <path id="パス_16" data-name="パス 16" d="M360.739,169.9a3.564,3.564,0,0,0-3.038-.658l-17.345,4.225a3.554,3.554,0,0,0-2.715,3.456v8.416a3.553,3.553,0,0,0,2.715,3.454l17.345,4.228a3.557,3.557,0,0,0,4.4-3.454V172.7A3.561,3.561,0,0,0,360.739,169.9Z" transform="translate(-290.282 -34.124)" fill="none" stroke="#fff" stroke-width="2"/>
  </g>
</svg>
