<svg xmlns="http://www.w3.org/2000/svg" width="35.731" height="41.919" viewBox="0 0 35.731 41.919">
  <g id="グループ_300" data-name="グループ 300" transform="translate(-37.79)">
    <path id="パス_201" data-name="パス 201" d="M155.81,0V14.237h2.736V2.736h19.289L171.7,6.883A2.521,2.521,0,0,0,170.6,8.971V32.407H158.546V23.095H155.81V35.143H170.6V40.95a.97.97,0,0,0,1.513.8l9.769-6.61V0Z" transform="translate(-108.357)" fill="#fff"/>
    <path id="パス_202" data-name="パス 202" d="M37.79,168.7H53.417v2.733h0a.388.388,0,0,0,.638.3l6.39-5.407-6.39-5.406a.387.387,0,0,0-.638.3v2.734H37.79" transform="translate(0 -147.653)" fill="#fff"/>
  </g>
</svg>
