<?xml version="1.0" encoding="utf-8"?>
<!-- Generator: Adobe Illustrator 25.0.0, SVG Export Plug-In . SVG Version: 6.00 Build 0)  -->
<svg version="1.1" id="レイヤー_1" xmlns="http://www.w3.org/2000/svg" xmlns:xlink="http://www.w3.org/1999/xlink" x="0px"
	 y="0px" viewBox="0 0 412.26 61.68" style="enable-background:new 0 0 412.26 61.68;" xml:space="preserve">
<style type="text/css">
	.st0{fill:#FFFFFF;}
	.st1{fill:none;stroke:#FFFFFF;stroke-width:0.5;stroke-miterlimit:10;}
</style>
<g>
	<polygon class="st0" points="14.2,59.56 14.2,48.86 20.75,48.86 20.75,47.2 10.6,47.2 0,61.21 2.03,61.21 12.44,47.45 12.44,61.21 
		20.91,61.21 20.91,59.56 	"/>
	<path class="st0" d="M29.17,46.97c-4.16,0-7.53,3.29-7.53,7.35c0,4.07,3.37,7.36,7.53,7.36c4.16,0,7.53-3.29,7.53-7.36
		C36.7,50.26,33.33,46.97,29.17,46.97z M29.17,60.09c-3.16,0-5.73-2.58-5.73-5.77c0-3.18,2.57-5.76,5.73-5.76
		c3.17,0,5.73,2.58,5.73,5.76C34.9,57.51,32.34,60.09,29.17,60.09z"/>
	<path class="st0" d="M39.79,50.57"/>
	<polygon class="st0" points="47.36,61.21 48.88,61.21 48.88,47.2 47.16,47.2 47.16,58.15 39.4,47.2 38.07,47.2 38.07,61.21 
		39.79,61.21 39.79,50.57 	"/>
	<g>
		<path class="st0" d="M20.17,52.23c0.47,0,0.5-0.28,0.08-0.28c-0.27,0-0.56-0.01-0.84-0.01c-1.9,0-3.7,0.12-5.21,0.34v0.37
			c1.72-0.28,3.83-0.43,5.21-0.43C19.58,52.21,19.84,52.23,20.17,52.23z"/>
		<path class="st0" d="M24.28,52.25c-0.29-0.03-0.41,0.23-0.04,0.28c1.72,0.24,3.23,0.6,3.23,1.21c0,0.96-3.62,1.61-8.06,1.61
			c-1.98,0-3.8-0.14-5.21-0.37c-0.69-0.11-1.29-0.25-1.76-0.4c-0.71-0.23-1.12-0.51-1.12-0.8c0-0.29,0.43-0.53,1.12-0.75v-0.43
			c-1.59,0.4-2.59,0.96-2.59,1.65c0,0.61,0.99,1.18,2.59,1.61c0.53,0.14,1.12,0.27,1.76,0.38c1.51,0.25,3.31,0.4,5.21,0.4
			c5.19,0,9.5-1.02,9.5-2.3C28.91,53.3,27.06,52.54,24.28,52.25z"/>
	</g>
	<path class="st0" d="M182.13,61.11V47.1h5.01c2.41,0,4.52,0.93,4.52,3.64c0,1.46-0.99,2.64-2.37,3.03v0.04
		c1.8,0.28,2.8,1.88,2.8,3.63c0,1.62-1.07,2.85-2.54,3.39c-0.72,0.28-1.57,0.3-2.41,0.28H182.13z M184.07,53h2.41
		c1.84,0.06,3.14-0.27,3.14-2.11c0-1.84-1.3-2.18-3.14-2.12h-2.41V53z M184.07,59.44h3.24c1.49,0,2.73-0.66,2.73-2.39
		c0-1.72-1.24-2.39-2.73-2.39h-3.24V59.44z"/>
	<path class="st0" d="M156.33,50.71c-0.1-1.34-1.53-2.23-2.97-2.23c-3.46,0-4.1,3.16-4.1,5.62c0,2.89,0.87,5.62,3.92,5.62
		c1.49,0,2.85-0.74,3.08-2.23h2.04c-0.19,2.35-2.56,3.9-5.3,3.9c-4.13,0-5.78-3.38-5.78-7.29c0-3.44,1.51-7.43,6.21-7.3
		c2.7,0.08,4.72,1.4,4.93,3.9H156.33z"/>
	<polygon class="st0" points="129.26,61.11 129.26,47.1 138.06,47.1 138.06,48.77 131.2,48.77 131.2,53.13 137.73,53.13 
		137.73,54.8 131.2,54.8 131.2,59.44 138.21,59.44 138.21,61.11 	"/>
	<polygon class="st0" points="160.13,61.11 160.13,47.1 162.07,47.1 162.07,59.44 168.58,59.44 168.58,61.11 	"/>
	<polygon class="st0" points="84.11,61.11 84.11,47.1 86.05,47.1 86.05,59.44 92.56,59.44 92.56,61.11 	"/>
	<path class="st0" d="M119.29,54.78v6.33h-1.94V47.1h5c2.35,0,4.78,0.74,4.78,3.51c0,1.69-1.01,2.99-2.64,3.38v0.04
		c1.69,0.41,1.92,1.31,2.13,2.88c0.21,1.39,0.37,2.89,0.87,4.22h-2.08c-0.17-0.84-0.41-1.75-0.51-2.58
		c-0.16-1.26-0.16-2.41-0.8-3.11c-0.56-0.64-1.33-0.58-2.11-0.64H119.29z M119.25,53.11h3.2c2.15-0.1,2.64-1.07,2.64-2.17
		c0-1.11-0.48-2.08-2.64-2.17h-3.2V53.11z"/>
	<polygon class="st0" points="95.49,48.77 90.79,48.77 90.79,47.1 102.12,47.1 102.12,48.77 97.42,48.77 97.42,61.11 95.49,61.11 	
		"/>
	<path class="st0" d="M67.12,50.71c-0.1-1.34-1.53-2.23-2.96-2.23c-3.46,0-4.1,3.16-4.1,5.62c0,2.89,0.87,5.62,3.92,5.62
		c1.49,0,2.85-0.74,3.08-2.23h2.04c-0.19,2.35-2.56,3.9-5.3,3.9c-4.13,0-5.78-3.38-5.78-7.29c0-3.44,1.51-7.43,6.21-7.3
		c2.7,0.08,4.72,1.4,4.93,3.9H67.12z"/>
	<path class="st0" d="M82.15,55.56c0.06,3.61-1.84,5.84-5.65,5.84c-3.8,0-5.7-2.23-5.64-5.84V47.1h1.94v8.92
		c0.06,2.4,1.49,3.7,3.7,3.7c2.22,0,3.65-1.3,3.71-3.7V47.1h1.94V55.56z"/>
	<path class="st0" d="M115.36,55.56c0.06,3.61-1.84,5.84-5.65,5.84c-3.8,0-5.7-2.23-5.64-5.84V47.1H106v8.92
		c0.06,2.4,1.49,3.7,3.71,3.7c2.22,0,3.65-1.3,3.71-3.7V47.1h1.94V55.56z"/>
	<path class="st0" d="M180.1,55.56c0.06,3.61-1.85,5.84-5.66,5.84c-3.8,0-5.7-2.23-5.64-5.84V47.1h1.94v8.92
		c0.06,2.4,1.49,3.7,3.7,3.7c2.22,0,3.66-1.3,3.71-3.7V47.1h1.95V55.56z"/>
	<path class="st0" d="M66.03,1.01H60V6.4H39.25V12h13.8c-0.44,2.85-2.64,10.83-13.7,14.61v5.71c0,0,15.93-1.99,19.26-20.32H60v20.24
		h6.03V12h5.54V6.4h-5.54V1.01z"/>
	<path class="st0" d="M21.77,4.2c-1.99,1.04-11.54,6.03-11.54,6.03c-2.47,1.34-4.76,1.54-6.64,1.54H0.51v5.61h4.06
		c1.58,0,4.2,0.04,6.78-1.34l3.43-1.79v18h5.6V11.3l3.12-1.63c2.47-1.34,3.95-1.3,6.05-1.3h3.09v-5.6h-4.51
		C26.55,2.77,24.2,2.94,21.77,4.2"/>
	<rect x="79.01" y="2.18" class="st0" width="17.63" height="5.6"/>
	<path class="st0" d="M103.92,6.21c0,0,1.59,22.41-25.01,20.34v5.71c0,0,31.31,3.67,30.95-26.05H103.92z"/>
	<path class="st0" d="M116.8,26.96c5.54-2.16,8.73-6.99,9.09-15.69h-8.78V6.29h9.03V1.26h5.46v5.03h15.65V24.9
		c0,5.64-1.95,7.45-6.53,7.45h-4.9v-5.36h2.14c2.62,0,3.62,0,3.62-2.7V11.27h-10.15c-0.42,10.9-4.54,18.32-14.62,21.47V26.96z"/>
	<path class="st0" d="M226.4,13.37h-10.51V7.99l9.5-0.38l-0.01-5.53l-28.42,1.15l0,5.51l12.97-0.52v5.15h-15.68v5.52h15.45
		c-1.11,4.39-6.33,8.03-13.51,8.03v5.44c14.93,0,18.95-8.85,19.59-13.47h10.61V13.37z"/>
	<path class="st0" d="M173.15,2.94v22.84c5.57-1.88,9.26-6.89,9.26-19.34h5.39c0,17.77-7.34,25.36-20.22,26.07V2.94H173.15z
		 M157.61,2.96H163v11.43c0,9.58-3.23,16.28-9.23,18.8l0.01-6.56c2.62-2.17,3.83-5.88,3.83-12.34V2.96z"/>
	<rect x="265.08" y="13.54" class="st0" width="31.8" height="5.82"/>
	<path class="st0" d="M242.4,10.38l-0.39-3.89h-5.27l0.4,4.21l-4.38,0.27l0,5.17l4.86-0.34l1.56,16.47h5.43l-1.7-16.85l9.99-0.71
		c-0.02,1.41-1.41,4.27-5.72,5.57v5.71c6.54-1.7,12.12-6.2,12.09-16.68L242.4,10.38z"/>
	<path class="st0" d="M372.77,11.98c-0.42,14.6-8.96,20.34-28.85,20.42v-5.46c15.89-0.04,21.08-4.31,22.34-9.63h-24.54v-5.32H372.77
		 M371.95,7.92h-29.38V2.46h29.38V7.92z"/>
	<path class="st0" d="M303.6,10.88v5.57c3.96-0.96,9.25-4.15,11.35-8.94h14.58c-1.11,13.39-11.1,18.97-23.87,19.35v5.53
		c15.33-0.98,29.77-6.69,30.08-30.38h-24.37C310.95,5.55,306.75,10.1,303.6,10.88"/>
	<g>
		<rect x="407.08" class="st0" width="5.18" height="3.3"/>
		<rect x="400.36" class="st0" width="5.18" height="3.3"/>
		<path class="st0" d="M398.83,2.77h-19.8v5.57h24.59c-1.03,11.17-7.77,16.82-22.31,18.42v5.64c20.17-1.91,27.89-11.17,28.61-27.92
			h-11.08V2.77z"/>
	</g>
	<line class="st1" x1="0.51" y1="40.29" x2="410.2" y2="40.29"/>
</g>
</svg>
