<svg xmlns="http://www.w3.org/2000/svg" width="351.234" height="52.603" viewBox="0 0 351.234 52.603">
  <g id="グループ_85" data-name="グループ 85" transform="translate(35.146 -266.24)">
    <path id="パス_27" data-name="パス 27" d="M366.334,284.78h-.739c-3.937,0-7.874-.007-11.81.009-.452,0-.629-.1-.616-.59.033-1.209.028-2.42,0-3.629-.01-.444.117-.583.574-.581,4.022.017,8.044.01,12.066.01h.689v-4.311l-10.973.433v-4.755l24.193-.982v4.768l-8.014.329v4.489c.2.01.4.028.592.028,2.574,0,5.147.012,7.72-.008.474,0,.66.1.644.616-.037,1.209-.027,2.42,0,3.629.009.422-.121.556-.548.554-2.625-.017-5.249-.008-7.874-.008H371.6a12.836,12.836,0,0,1-1.57,4.377,13.8,13.8,0,0,1-8.607,6.274,24.481,24.481,0,0,1-6.108.816c-.132,0-.265-.016-.432-.027v-4.635c.68-.053,1.358-.078,2.027-.164a12.007,12.007,0,0,0,8.008-3.933A6.544,6.544,0,0,0,366.334,284.78Z" transform="translate(-222.859 -2.378)" fill="#6e6e6e"/>
    <path id="パス_28" data-name="パス 28" d="M66.159,272.806c1.415,0,2.742.023,4.068-.012.51-.013.68.117.661.648-.041,1.191-.013,2.385-.013,3.578v.6H66.191c-.012.267-.031.482-.031.7q0,7.923,0,15.846c0,.733,0,.733-.755.734-1.244,0-2.488,0-3.732,0-.827,0-.726.067-.726-.752q0-7.923,0-15.847v-.577c-.075-.042-.1-.071-.132-.072-.976-.058-.967-.056-1.171.876-1.274,5.829-4.177,10.562-9.324,13.765a19.486,19.486,0,0,1-6.306,2.554c-.133.028-.267.051-.4.066a1.722,1.722,0,0,1-.257-.014v-2.5c0-.613.025-1.228-.009-1.839a.6.6,0,0,1,.481-.695,18.771,18.771,0,0,0,6.678-3.95,14.534,14.534,0,0,0,4.459-7.921c.019-.1.023-.2.039-.351H43.265v-1.154c0-1.04.022-2.08-.01-3.118-.014-.457.133-.573.579-.572q8.2.022,16.409.009h.7c0-1.319,0-2.576,0-3.832,0-.807-.122-.755.777-.757,1.278,0,2.557.017,3.834-.01.458-.01.628.111.613.6-.034,1.124-.011,2.249-.011,3.373Z" transform="translate(-44.995 -1.129)" fill="#6e6e6e"/>
    <path id="パス_29" data-name="パス 29" d="M206.038,277.316h-7.4v-4.3h7.622v-4.3h.915c1.091,0,2.182.021,3.272-.01.461-.014.576.142.565.584C210.985,270.5,211,271.7,211,273h12.644c.676,0,.677,0,.677.652-.006,5.386.006,10.771-.034,16.156a9.8,9.8,0,0,1-.4,2.457,3.716,3.716,0,0,1-3.016,2.8c-2.07.433-4.17.148-6.295.234v-4.634c.215,0,.444.006.673,0,.936-.026,1.874-.024,2.807-.095a1.281,1.281,0,0,0,1.3-1.26,7.482,7.482,0,0,0,.081-1.018q.009-5.24,0-10.481c0-.15-.018-.3-.029-.472h-8.553c-.054.684-.1,1.375-.163,2.063a22.119,22.119,0,0,1-2.292,8.31,15.652,15.652,0,0,1-8.6,7.389c-.457.176-.922.332-1.444.518-.022-.2-.051-.344-.051-.487,0-1.346,0-2.693-.006-4.039,0-.274.032-.473.336-.6,3.8-1.572,5.886-4.56,6.779-8.445.337-1.468.434-2.992.637-4.491A1.145,1.145,0,0,0,206.038,277.316Z" transform="translate(-133.985 -1.415)" fill="#6e6e6e"/>
    <path id="パス_30" data-name="パス 30" d="M573.656,296.262v-4.744c.891-.069,1.768-.118,2.641-.207a24.253,24.253,0,0,0,9.123-2.58,15.588,15.588,0,0,0,8.276-11.679c.1-.552.148-1.113.216-1.669a1.515,1.515,0,0,0-.019-.271c-.15-.014-.282-.035-.413-.035q-5.75,0-11.5.01a.67.67,0,0,0-.507.269,14.544,14.544,0,0,1-7.873,6.781c-.471.192-.966.324-1.452.479a1.07,1.07,0,0,1-.233.013c-.011-.164-.03-.313-.03-.462,0-1.278,0-2.556,0-3.833,0-.24,0-.416.3-.551a10.682,10.682,0,0,0,6.3-7.3.612.612,0,0,1,.062-.108h20.709c0,.608.024,1.183,0,1.756a30.544,30.544,0,0,1-2.491,11.294A20.056,20.056,0,0,1,584.4,294.3a38.472,38.472,0,0,1-9.387,1.854C574.576,296.191,574.14,296.223,573.656,296.262Z" transform="translate(-348.381 -2.371)" fill="#6e6e6e"/>
    <path id="パス_31" data-name="パス 31" d="M722.729,276.658v-4.789h16.888v1.386h9.458c-.056.861-.086,1.654-.163,2.441a28.493,28.493,0,0,1-2.1,8.694,18.988,18.988,0,0,1-10.96,10.259,37.563,37.563,0,0,1-9.3,2.261c-.607.076-1.214.143-1.866.219V292.29c1.127-.175,2.255-.326,3.375-.527a27.152,27.152,0,0,0,7.373-2.32,14.121,14.121,0,0,0,7.922-10.743c.117-.651.194-1.31.3-2.042Z" transform="translate(-434.955 -3.231)" fill="#6e6e6e"/>
    <path id="パス_32" data-name="パス 32" d="M649.974,307.69c0-1.526,0-2.971,0-4.417,0-.343.254-.3.472-.3,1.209-.039,2.42-.044,3.626-.125a28.094,28.094,0,0,0,9.4-1.94,9.088,9.088,0,0,0,4.9-4.337c.254-.526.429-1.09.672-1.721h-20.9V290.3h26.507c-.081.928-.132,1.839-.245,2.743a16.294,16.294,0,0,1-2.4,7.039,14.5,14.5,0,0,1-7.562,5.637,30.52,30.52,0,0,1-7.922,1.654c-1.967.163-3.944.218-5.917.318C650.423,307.7,650.237,307.69,649.974,307.69Z" transform="translate(-392.15 -13.807)" fill="#6e6e6e"/>
    <path id="パス_33" data-name="パス 33" d="M438.45,282.514l14.361-.889a15.419,15.419,0,0,1-2.51,9.245,13.233,13.233,0,0,1-7.849,5.031v-1.026c0-1.142.012-2.283-.007-3.424a.539.539,0,0,1,.438-.618,7.449,7.449,0,0,0,3.184-1.961,4.313,4.313,0,0,0,1.261-2.58l-8.437.6c.239,2.421.47,4.8.709,7.181s.483,4.729.729,7.129h-4.685c-.442-4.646-.885-9.295-1.331-13.984l-4.158.285v-2.039c0-.614.033-1.229-.01-1.839-.035-.509.171-.628.641-.64,1.018-.027,2.034-.115,3.1-.181-.106-1.21-.207-2.367-.314-3.593h2.662c.494,0,.989.014,1.482,0,.3-.011.411.093.436.4C438.228,280.55,438.342,281.494,438.45,282.514Z" transform="translate(-267.035 -7.438)" fill="#6e6e6e"/>
    <path id="パス_34" data-name="パス 34" d="M299.854,297.4v-.712q0-11.985-.012-23.969c0-.521.141-.672.658-.656,1.191.037,2.385.01,3.577.013.183,0,.365.019.578.031V291.5c.219-.067.39-.108.551-.171a10.085,10.085,0,0,0,5.869-6.292,24.36,24.36,0,0,0,1.327-6.992c.061-.965.087-1.932.131-2.931h4.532c.025.041.057.069.058.1a31.043,31.043,0,0,1-2.133,12.538,14.894,14.894,0,0,1-11.624,9.161C302.237,297.123,301.086,297.23,299.854,297.4Z" transform="translate(-192.254 -3.34)" fill="#6e6e6e"/>
    <path id="パス_35" data-name="パス 35" d="M-6.7,271.77V276.6h-.576l-3.067,0a8.16,8.16,0,0,0-3.829.938c-.829.435-1.649.887-2.491,1.294a.737.737,0,0,0-.475.782q.022,8.307.01,16.613v.71H-17.8c-1.227,0-2.453-.013-3.68.008-.381.006-.507-.114-.5-.5.023-.885.007-1.772.007-2.658V281.66c-1.949.873-3.654,2.229-5.792,2.407-2.081.173-4.174.2-6.309.288v-4.92c.864,0,1.713.049,2.554-.012a25.429,25.429,0,0,0,3.383-.407,9.3,9.3,0,0,0,2.273-.879q4.793-2.456,9.551-4.979a11.815,11.815,0,0,1,5.588-1.386C-9.391,271.765-8.065,271.77-6.7,271.77Z" transform="translate(-0.619 -3.173)" fill="#6e6e6e"/>
    <path id="パス_36" data-name="パス 36" d="M122.681,300.944v-4.86c.239,0,.453-.01.667,0a25.532,25.532,0,0,0,10.373-1.222,14.7,14.7,0,0,0,9.7-11.164,40.163,40.163,0,0,0,.54-4.548c.013-.116.014-.233.022-.385h5.009c0,1.012.06,2-.011,2.974a22.757,22.757,0,0,1-1.776,7.511,18.108,18.108,0,0,1-10.43,9.806,31.084,31.084,0,0,1-13.786,1.929C122.9,300.981,122.816,300.963,122.681,300.944Z" transform="translate(-90.579 -7.189)" fill="#6e6e6e"/>
    <path id="パス_37" data-name="パス 37" d="M140.4,346.744H-33.277a3.908,3.908,0,0,1-.612-.014c-.084-.013-.221-.15-.21-.2.022-.1.121-.248.21-.265a3.6,3.6,0,0,1,.662-.02h347.3a3.567,3.567,0,0,1,.662.02c.088.017.187.162.209.264.012.054-.125.19-.208.2a3.889,3.889,0,0,1-.612.014Z" transform="translate(-0.601 -45.912)" fill="#6e6e6e"/>
    <path id="パス_38" data-name="パス 38" d="M521.974,298.35H494.861c0-1.519,0-3,0-4.477,0-.149.019-.3.031-.472h27.08Z" transform="translate(-304.178 -15.588)" fill="#6e6e6e"/>
    <path id="パス_39" data-name="パス 39" d="M-17.462,360.31v1.471h-5.5v2.761l5.289-.217.015.232-5.314.384v2a29.882,29.882,0,0,0,6.214.28,19.778,19.778,0,0,1,.192-2.123,6.417,6.417,0,0,1,6.55-4.981,6.431,6.431,0,0,1,6.139,5.544,6.331,6.331,0,0,1-4.647,6.821,6.457,6.457,0,0,1-7.626-3.51.832.832,0,0,0-.926-.588c-1.954,0-3.907-.082-5.888-.134v2.594h.553c1.551,0,3.1.012,4.652-.008.387,0,.52.122.488.5-.026.3-.005.6-.005.936h-7.28v-.532c0-1.141-.018-2.284.01-3.424.01-.4-.091-.6-.5-.72a4.934,4.934,0,0,1-1.287-.6.711.711,0,0,1,0-1.315,6.693,6.693,0,0,1,1.431-.648c.252-.089.355-.181.352-.453-.012-1.26-.006-2.521-.006-3.918-.177.225-.288.36-.393.5q-4.026,5.316-8.042,10.64a1.05,1.05,0,0,1-1.057.509,10.451,10.451,0,0,0-1.1-.007c.138-.206.223-.344.32-.473q4.193-5.542,8.381-11.087a.98.98,0,0,1,.888-.441c2.487.018,4.975.009,7.463.009Zm2.735,7.948a4.777,4.777,0,0,0,5.89,2.814,4.884,4.884,0,0,0,3.193-6.11,4.855,4.855,0,0,0-6.052-3.205,4.725,4.725,0,0,0-3.291,5.4c.909-.24,1.829-.458,2.729-.738a.778.778,0,0,0,.452-.526c.018-.13-.272-.389-.467-.448-.664-.2-1.347-.34-2.022-.506-.129-.032-.254-.08-.381-.121l.015-.138a1.374,1.374,0,0,1,.366-.046,10.211,10.211,0,0,1,1.454.256,8.1,8.1,0,0,1,1.792.693c.793.467.749,1.156-.046,1.611a3.988,3.988,0,0,1-.934.4C-12.911,367.834-13.8,368.035-14.726,368.258Zm-9.849-3.01c-.349.282-.8.472-.817.7-.034.423.438.492.817.6Z" transform="translate(0 -53.873)" fill="#6e6e6e"/>
    <path id="パス_40" data-name="パス 40" d="M674.857,271.242v4.627H649.834v-4.627Z" transform="translate(-393.12 -2.871)" fill="#6e6e6e"/>
    <path id="パス_41" data-name="パス 41" d="M272.3,297.877c-.012-.173-.034-.336-.034-.5,0-1.533-.009-3.066.007-4.6a.881.881,0,0,1,.194-.59,8.94,8.94,0,0,0,2.715-5.687,43.194,43.194,0,0,0,.334-4.935c.051-2.946.024-5.894,0-8.841,0-.453.127-.58.576-.57,1.343.028,2.686.01,4.076.01.014.213.034.377.033.542-.02,3.713.027,7.429-.086,11.139a19.482,19.482,0,0,1-2.42,9.239,11.116,11.116,0,0,1-4.835,4.623c-.122.059-.246.116-.373.164A.691.691,0,0,1,272.3,297.877Z" transform="translate(-176.428 -3.395)" fill="#6e6e6e"/>
    <path id="パス_42" data-name="パス 42" d="M137.93,275.371H122.9v-4.8h.6c4.613,0,9.226.007,13.839-.01.481,0,.648.114.633.616-.035,1.225-.011,2.451-.013,3.677C137.958,275.014,137.941,275.18,137.93,275.371Z" transform="translate(-90.707 -2.477)" fill="#6e6e6e"/>
    <path id="パス_43" data-name="パス 43" d="M335.305,366.091a3.154,3.154,0,0,1,2.217,3.369,3.113,3.113,0,0,1-2.861,2.815c-1.858.137-3.734.032-5.646.032-.009-.188-.026-.37-.026-.551,0-3.594.008-7.187-.011-10.781,0-.489.13-.644.625-.627,1.548.054,3.1.009,4.644.106a2.891,2.891,0,0,1,2.8,2.142,2.747,2.747,0,0,1-1.468,3.34C335.508,365.973,335.439,366.015,335.305,366.091Zm-4.6,4.768c1.088,0,2.126.055,3.156-.014a1.973,1.973,0,0,0-.124-3.942c-.917-.035-1.836-.014-2.753-.012a1.192,1.192,0,0,0-.279.067Zm0-5.489c.954,0,1.853.014,2.752-.008a3.144,3.144,0,0,0,.945-.172,1.774,1.774,0,0,0,.03-3.129,12.65,12.65,0,0,0-3.727-.192Z" transform="translate(-208.975 -54.009)" fill="#6e6e6e"/>
    <path id="パス_44" data-name="パス 44" d="M199.556,360.371c.367,0,.7,0,1.039,0,1.4.023,2.792.039,4.187.082a3.893,3.893,0,0,1,.948.182,2.691,2.691,0,0,1,2.186,2.612,2.918,2.918,0,0,1-1.828,2.914c-.071.031-.141.065-.33.152,1.286.328,1.553,1.254,1.7,2.3.177,1.238.427,2.465.654,3.745a13.444,13.444,0,0,1-1.451-.02c-.138-.015-.328-.262-.358-.428-.2-1.07-.349-2.147-.531-3.22a1.679,1.679,0,0,0-1.92-1.675c-.849-.023-1.7,0-2.61,0v5.307h-1.689Zm1.677,1.57v3.514c1.092,0,2.149.06,3.2-.016a1.587,1.587,0,0,0,1.666-1.637,1.541,1.541,0,0,0-1.48-1.836C203.508,361.854,202.382,361.94,201.233,361.94Z" transform="translate(-134.699 -54.022)" fill="#6e6e6e"/>
    <path id="パス_45" data-name="パス 45" d="M48.66,369.623v-8.38c0-.681,0-.686.7-.68.948.008.844-.125.845.84q.005,5.239,0,10.478v.671a7.247,7.247,0,0,1-1.156-.018.91.91,0,0,1-.48-.385q-2.842-3.966-5.666-7.944c-.116-.162-.238-.32-.444-.6v8.914H40.909v-.6c0-3.561,0-7.122.008-10.682,0-.222.126-.635.19-.635.408,0,.865-.233,1.206.255,1.571,2.247,3.164,4.478,4.75,6.715q.747,1.053,1.5,2.1Z" transform="translate(-43.649 -54.124)" fill="#6e6e6e"/>
    <path id="パス_46" data-name="パス 46" d="M174.6,364.617c0,1.107-.011,2.215,0,3.322a3.105,3.105,0,0,0,4.653,2.859,2.8,2.8,0,0,0,1.567-2.718c.028-2.368.024-4.736,0-7.1-.005-.489.123-.645.622-.631,1.123.032,1.124.006,1.124,1.148,0,2.011.008,4.021-.006,6.032a8.072,8.072,0,0,1-.122,1.473c-.445,2.295-1.925,3.506-4.456,3.6a7.2,7.2,0,0,1-2.018-.226,3.964,3.964,0,0,1-3.009-3.538,12.944,12.944,0,0,1-.091-1.476c-.01-2.147,0-4.293-.012-6.44,0-.4.076-.575.527-.57,1.217.013,1.218-.008,1.218,1.2Z" transform="translate(-119.373 -54.008)" fill="#6e6e6e"/>
    <path id="パス_47" data-name="パス 47" d="M108.208,360.359v.689c0,2.317-.01,4.633.005,6.95a2.8,2.8,0,0,0,2.272,3.031c2.352.421,3.95-.718,3.962-3.057s.018-4.667-.006-7c-.005-.5.144-.64.634-.626,1.1.031,1.105.007,1.105,1.1,0,2.078.009,4.156-.006,6.234a7.385,7.385,0,0,1-.141,1.47,3.984,3.984,0,0,1-3.316,3.315,6.636,6.636,0,0,1-3.086-.072,3.927,3.927,0,0,1-3.061-3.717c-.11-2.653-.066-5.312-.068-7.969a.466.466,0,0,1,.3-.336C107.243,360.336,107.685,360.359,108.208,360.359Z" transform="translate(-81.291 -54.008)" fill="#6e6e6e"/>
    <path id="パス_48" data-name="パス 48" d="M225.006,367v3.864h5.9v1.452h-7.657v-.568c0-3.594.007-7.189-.008-10.784,0-.446.087-.623.583-.617q3.219.042,6.439,0c.467-.005.582.154.564.589-.041,1.037.135.91-.939.916-1.465.008-2.931.015-4.4-.006-.406-.006-.53.127-.518.527q.04,1.3,0,2.606c-.013.4.118.53.52.525,1.465-.019,2.93-.008,4.4-.006.2,0,.4.019.588.029.2,1.472.2,1.472-1.18,1.472Z" transform="translate(-148.291 -54.009)" fill="#6e6e6e"/>
    <path id="パス_49" data-name="パス 49" d="M304.06,360.289v.626c0,2.282-.013,4.565.011,6.847a5,5,0,0,0,.23,1.451,2.457,2.457,0,0,0,1.777,1.681,3.848,3.848,0,0,0,2.458-.081,2.583,2.583,0,0,0,1.729-2.485c.063-2.076.032-4.155.041-6.233,0-.187,0-.375,0-.562,0-1.378.035-1.414,1.421-1.231.113.015.3.189.3.29.007,2.606.122,5.22-.05,7.814-.176,2.656-1.816,4.038-4.538,4.125a7.18,7.18,0,0,1-1.969-.219,3.941,3.941,0,0,1-3.055-3.825c-.079-2.6-.038-5.211-.053-7.816,0-.243.058-.39.34-.383C303.12,360.3,303.543,360.289,304.06,360.289Z" transform="translate(-193.698 -53.938)" fill="#6e6e6e"/>
    <path id="パス_50" data-name="パス 50" d="M90.255,368.844a2.969,2.969,0,0,1-.8,1.894c-1.674,1.915-6.37,2.441-7.941-1.129a8.5,8.5,0,0,1,.02-7.181,5.072,5.072,0,0,1,7.462-1.813,3.239,3.239,0,0,1,1.317,2.5c-.549,0-1.055.016-1.558-.014-.1-.006-.23-.176-.266-.294a2.088,2.088,0,0,0-1.157-1.291,3.12,3.12,0,0,0-4.242,1.553,7.494,7.494,0,0,0-.451,3.962,7.022,7.022,0,0,0,.524,2.009,2.987,2.987,0,0,0,4.328,1.256,3.455,3.455,0,0,0,.894-1.125c.128-.211.208-.345.477-.332C89.3,368.86,89.741,368.844,90.255,368.844Z" transform="translate(-66.501 -53.621)" fill="#6e6e6e"/>
    <path id="パス_51" data-name="パス 51" d="M268.677,363.1c-.525,0-1.016.009-1.507-.009a.378.378,0,0,1-.26-.186,2.73,2.73,0,0,0-3.456-1.592,2.763,2.763,0,0,0-1.977,1.77,7.872,7.872,0,0,0,.026,5.834,3.038,3.038,0,0,0,4.34,1.419,2.314,2.314,0,0,0,1.067-1.476h1.732a2.75,2.75,0,0,1-.822,1.888,4.952,4.952,0,0,1-4.1,1.436,4.349,4.349,0,0,1-4.1-3.289,8.952,8.952,0,0,1,.077-5.964,5.044,5.044,0,0,1,7.477-2.485A3.15,3.15,0,0,1,268.677,363.1Z" transform="translate(-168.9 -53.602)" fill="#6e6e6e"/>
    <path id="パス_52" data-name="パス 52" d="M150.433,361.912h-3.979v-1.453h9.612v1.456h-3.933v10.457h-1.7Z" transform="translate(-104.223 -54.074)" fill="#6e6e6e"/>
    <path id="パス_53" data-name="パス 53" d="M286.678,370.872h5.5v1.437h-7.211c-.009-.2-.024-.378-.024-.56,0-3.592.009-7.184-.012-10.776,0-.493.134-.642.628-.628,1.115.032,1.116.007,1.116,1.1v9.424Z" transform="translate(-183.699 -54.008)" fill="#6e6e6e"/>
    <path id="パス_54" data-name="パス 54" d="M134.756,370.895c1.729,0,3.363.019,5-.012.488-.009.606.153.588.608-.041,1.038.111.876-.912.88-2.093.009-4.187,0-6.324,0V360.39c.472,0,.959-.024,1.44.023.085.008.2.309.2.475.014,2.077.009,4.153.009,6.231v3.776Z" transform="translate(-96.561 -54.03)" fill="#6e6e6e"/>
    <path id="パス_55" data-name="パス 55" d="M783.2,266.315v2.8a3.365,3.365,0,0,1-.387.046c-1.19,0-2.379-.013-3.568.011-.392.008-.495-.127-.483-.5.024-.776.007-1.554.007-2.362Z" transform="translate(-467.113 -0.043)" fill="#6e6e6e"/>
    <path id="パス_56" data-name="パス 56" d="M765.417,269.087V266.24h4.388v2.847Z" transform="translate(-459.454)" fill="#6e6e6e"/>
  </g>
</svg>
