<svg xmlns="http://www.w3.org/2000/svg" viewBox="0 0 8.42 16.46"><defs><style>.cls-1{fill:#ededec;}</style></defs><g id="レイヤー_2" data-name="レイヤー 2"><g id="レイヤー_1-2" data-name="レイヤー 1"><g id="グループ_302" data-name="グループ 302"><g id="レイヤー_2-2" data-name="レイヤー 2"><g id="Design"><path id="パス_5" data-name="パス 5" class="cls-1" d="M8.12,0h-2C3.82,0,2.36,1.59,2.36,4.05V5.92h-2A.33.33,0,0,0,0,6.25H0V9a.34.34,0,0,0,.32.33h2v6.83a.34.34,0,0,0,.32.34H5.32a.34.34,0,0,0,.32-.34h0V9.29H8A.32.32,0,0,0,8.33,9V6.25A.34.34,0,0,0,8,5.91H5.64V4.33c0-.76.17-1.14,1.11-1.14H8.1a.34.34,0,0,0,.32-.33V.33A.33.33,0,0,0,8.12,0Z"/></g></g></g></g></g></svg>