<svg xmlns="http://www.w3.org/2000/svg" width="37.12" height="40.437" viewBox="0 0 37.12 40.437">
  <g id="グループ_299" data-name="グループ 299" transform="translate(-14.584)">
    <rect id="長方形_550" data-name="長方形 550" width="9.5" height="1.768" transform="translate(21.232 31.095)" fill="#fff"/>
    <rect id="長方形_551" data-name="長方形 551" width="12.99" height="1.768" transform="translate(21.168 24.114)" fill="#fff"/>
    <rect id="長方形_552" data-name="長方形 552" width="18.505" height="1.768" transform="translate(21.022 17.134)" fill="#fff"/>
    <rect id="長方形_553" data-name="長方形 553" width="8.722" height="1.768" transform="translate(30.382 10.155)" fill="#fff"/>
    <path id="パス_197" data-name="パス 197" d="M43.354,36.759a1.583,1.583,0,0,1-1.55,1.61H18.126a1.583,1.583,0,0,1-1.55-1.61V13.9h9.475a1.94,1.94,0,0,0,1.9-1.973V2.068H41.8a1.581,1.581,0,0,1,1.55,1.608V15.291l1.992-2.068V3.676A3.615,3.615,0,0,0,41.8,0H27.437a3.818,3.818,0,0,0-2.751,1.182l-8.962,9.3a4.118,4.118,0,0,0-1.14,2.856V36.759a3.616,3.616,0,0,0,3.542,3.677H41.8a3.616,3.616,0,0,0,3.542-3.677V26.871l-1.992,2.068v7.821ZM26.181,2.555V10.82c0,.894-.335,1.242-1.2,1.242H17.023Z" fill="#fff"/>
    <path id="パス_198" data-name="パス 198" d="M435.666,177.9l-2.249-2.249a1,1,0,0,0-1.417,0l-1.458,1.458,3.667,3.667,1.458-1.458A1,1,0,0,0,435.666,177.9Z" transform="translate(-384.256 -161.565)" fill="#fff"/>
    <path id="パス_199" data-name="パス 199" d="M248.719,364.632l-1.25,4.917,4.917-1.25Z" transform="translate(-215.12 -335.935)" fill="#fff"/>
    <path id="パス_200" data-name="パス 200" d="M272.152,217.375l3.667,3.667,12.168-12.167-3.667-3.668Zm13.585-9.084-10.6,10.6-.833-.834,10.6-10.6Z" transform="translate(-238.701 -189.26)" fill="#fff"/>
  </g>
</svg>
