<svg xmlns="http://www.w3.org/2000/svg" width="18" height="15" viewBox="0 0 18 15">
  <path id="パス_237" data-name="パス 237" d="M80.661,113.452c6.792,0,10.508-5.771,10.508-10.776,0-.164,0-.327-.011-.49A7.623,7.623,0,0,0,93,100.226a7.229,7.229,0,0,1-2.121.6A3.786,3.786,0,0,0,92.5,98.727a7.289,7.289,0,0,1-2.345.919,3.632,3.632,0,0,0-5.225-.164,3.853,3.853,0,0,0-1.068,3.619,10.4,10.4,0,0,1-7.611-3.957A3.849,3.849,0,0,0,77.4,104.2a3.6,3.6,0,0,1-1.676-.474v.048a3.767,3.767,0,0,0,2.963,3.713,3.6,3.6,0,0,1-1.668.065,3.71,3.71,0,0,0,3.45,2.63A7.259,7.259,0,0,1,75,111.751a10.266,10.266,0,0,0,5.661,1.7" transform="translate(-75 -98.452)" fill="#414141"/>
</svg>
