<svg xmlns="http://www.w3.org/2000/svg" width="15.946" height="16.455" viewBox="0 0 15.946 16.455">
  <g id="グループ_390" data-name="グループ 390" transform="translate(-4.281)">
    <path id="パス_234" data-name="パス 234" d="M15.644,0H8.864A4.617,4.617,0,0,0,4.281,4.65V11.8a4.617,4.617,0,0,0,4.583,4.65h6.78a4.617,4.617,0,0,0,4.583-4.65V4.65A4.617,4.617,0,0,0,15.644,0ZM5.908,4.65a2.981,2.981,0,0,1,2.956-3h6.78a2.981,2.981,0,0,1,2.956,3V11.8a2.981,2.981,0,0,1-2.956,3H8.864a2.981,2.981,0,0,1-2.956-3Z" fill="#414141"/>
    <path id="パス_235" data-name="パス 235" d="M128.11,132.289a4.074,4.074,0,1,0-3.961-4.072A4.022,4.022,0,0,0,128.11,132.289Zm0-6.875a2.8,2.8,0,1,1-2.726,2.8A2.769,2.769,0,0,1,128.11,125.414Z" transform="translate(-115.856 -119.99)" fill="#414141"/>
    <circle id="楕円形_50" data-name="楕円形 50" cx="0.989" cy="0.989" r="0.989" transform="translate(15.531 2.901)" fill="#414141"/>
  </g>
</svg>
