<svg xmlns="http://www.w3.org/2000/svg" width="8.419" height="16.455" viewBox="0 0 8.419 16.455">
  <g id="グループ_302" data-name="グループ 302" transform="translate(-11.287 -6.631)">
    <g id="レイヤー_2" data-name="レイヤー 2" transform="translate(11.287 6.631)">
      <g id="Design">
        <path id="パス_5" data-name="パス 5" d="M19.4,6.631H17.37c-2.271,0-3.732,1.59-3.732,4.052v1.865H11.6a.333.333,0,0,0-.318.333h0v2.706a.333.333,0,0,0,.318.333h2.033v6.834a.333.333,0,0,0,.318.333H16.6a.333.333,0,0,0,.318-.333h0V15.926h2.372a.333.333,0,0,0,.318-.333v-2.71a.344.344,0,0,0-.094-.237.309.309,0,0,0-.224-.1H16.922V10.966c0-.764.174-1.146,1.106-1.146h1.359a.333.333,0,0,0,.318-.333V6.964A.333.333,0,0,0,19.4,6.631Z" transform="translate(-11.287 -6.631)" fill="#414141"/>
      </g>
    </g>
  </g>
</svg>
