<svg id="グループ_54" data-name="グループ 54" xmlns="http://www.w3.org/2000/svg" width="28.386" height="34.083" viewBox="0 0 28.386 34.083">
    <path id="パス_20" data-name="パス 20" d="M452.068,98a14.908,14.908,0,0,1-1.611-.571,4.725,4.725,0,0,1-2.051-1.977c-.045-.086-.08-.177-.131-.291H457.2a4.965,4.965,0,0,1-3.656,2.776A.457.457,0,0,0,453.4,98Z" transform="translate(-438.537 -63.918)" fill="#fff"/>
    <path id="パス_21" data-name="パス 21" d="M460.77,119.513q-6.641,0-13.276.006c-.337,0-.646-.029-.828-.36a.828.828,0,0,1,.1-.9c.737-1.211,1.451-2.434,2.194-3.639a12.4,12.4,0,0,0,1.862-6.69c-.012-1.3-.034-2.594.034-3.89a9.935,9.935,0,0,1,6.8-8.866.308.308,0,0,0,.257-.349c-.012-.777-.017-1.554,0-2.331a2.84,2.84,0,0,1,5.593-.657,3.557,3.557,0,0,1,.1.817c.012.708.012,1.422,0,2.131a.34.34,0,0,0,.28.394,9.8,9.8,0,0,1,6.593,7.409,12.333,12.333,0,0,1,.217,2.245c.034,1.274-.006,2.548.028,3.822a11.723,11.723,0,0,0,1.737,5.787q1.174,1.945,2.336,3.9a.713.713,0,0,1-.308,1.125,1.3,1.3,0,0,1-.423.046Z" transform="translate(-446.571 -89.692)" fill="#fff"/>
  </svg>
