<svg xmlns="http://www.w3.org/2000/svg" width="33" height="33" viewBox="0 0 33 33">
  <g id="グループ_303" data-name="グループ 303" transform="translate(-26 -542)">
    <rect id="長方形_29" data-name="長方形 29" width="33" height="33" rx="7" transform="translate(26 542)" fill="#20acee"/>
    <g id="レイヤー_2" data-name="レイヤー 2" transform="translate(33.277 551.217)">
      <g id="Design" transform="translate(0 0)">
        <path id="パス_4" data-name="パス 4" d="M19.006,1.831a8.02,8.02,0,0,1-2.24.619A3.958,3.958,0,0,0,18.477.282,7.744,7.744,0,0,1,16,1.238,3.89,3.89,0,0,0,9.259,3.892a3.69,3.69,0,0,0,.106.885A11.041,11.041,0,0,1,1.329.716,3.9,3.9,0,0,0,2.537,5.927,3.812,3.812,0,0,1,.773,5.441v.053A3.908,3.908,0,0,0,3.9,9.325a3.913,3.913,0,0,1-1.023.133,4.082,4.082,0,0,1-.741-.071A3.918,3.918,0,0,0,5.775,12.1,7.837,7.837,0,0,1,.932,13.775a8.166,8.166,0,0,1-.882-.053A11.025,11.025,0,0,0,17.065,4.486c0-.045,0-.089,0-.134v-.5A7.848,7.848,0,0,0,19.006,1.831Z" transform="translate(-0.05 0.008)" fill="#ededed"/>
      </g>
    </g>
  </g>
</svg>
