<svg xmlns="http://www.w3.org/2000/svg" width="55.534" height="37.119" viewBox="0 0 55.534 37.119">
  <g id="グループ_47" data-name="グループ 47" transform="translate(-260.5 -2553.5)">
    <line id="線_11" data-name="線 11" x2="46" transform="translate(261.5 2554.5)" fill="none" stroke="#fff" stroke-linecap="round" stroke-width="2"/>
    <line id="線_12" data-name="線 12" x2="33" transform="translate(261.5 2566.5)" fill="none" stroke="#fff" stroke-linecap="round" stroke-width="2"/>
    <line id="線_13" data-name="線 13" x2="27" transform="translate(261.5 2577.5)" fill="none" stroke="#fff" stroke-linecap="round" stroke-width="2"/>
    <line id="線_14" data-name="線 14" x2="20" transform="translate(261.5 2589.5)" fill="none" stroke="#fff" stroke-linecap="round" stroke-width="2"/>
    <g id="グループ_46" data-name="グループ 46" transform="translate(-645.052 2384.001)">
      <path id="パス_18" data-name="パス 18" d="M958.695,200.654l-4.832-1.975a2.271,2.271,0,0,1-1.321-2.062V195.9a2.99,2.99,0,0,1,.165-.989s3.038-4.055,3.038-7.795c0-4.673-2.988-7.678-6.676-7.678s-6.676,3-6.676,7.678c0,3.74,3.041,7.795,3.041,7.795a3.061,3.061,0,0,1,.165.989v.712a2.275,2.275,0,0,1-1.324,2.062l-4.832,1.975a3.782,3.782,0,0,0-2.143,2.763l-.249,3.2h24.034l-.246-3.2A3.792,3.792,0,0,0,958.695,200.654Z" transform="translate(0)" fill="#fff"/>
    </g>
  </g>
</svg>
