<?xml version="1.0" encoding="utf-8"?>
<!-- Generator: Adobe Illustrator 25.0.0, SVG Export Plug-In . SVG Version: 6.00 Build 0)  -->
<svg version="1.1" id="レイヤー_1" xmlns="http://www.w3.org/2000/svg" xmlns:xlink="http://www.w3.org/1999/xlink" x="0px"
	 y="0px" viewBox="0 0 245.4 83.2" style="enable-background:new 0 0 245.4 83.2;" xml:space="preserve">
<style type="text/css">
	.st0{fill:#FFFFFF;}
</style>
<g>
	<path class="st0" d="M155.5,9.3c5.7-4.1,12.7-6.2,19.6-6.6c0.9-0.1,1.7-0.1,2.6,0c0.9,0,1.7,0,2.6,0.1l2.6,0.3l1.3,0.2l1.3,0.3
		L188,4l2.5,0.8l1.2,0.4c0.4,0.2,0.8,0.4,1.2,0.5l2.4,1.1c5.6,2.9,10.4,7.2,14,12.3l-4.6,2.9l11.5,4.5l0.7-12.4l-4.3,2.7
		c-4.2-5.6-9.7-10.1-15.9-13.1l-2.6-1.1c-0.4-0.2-0.9-0.4-1.3-0.5l-1.3-0.4l-2.7-0.8L186,0.6l-1.4-0.3c-0.5-0.1-0.9-0.1-1.4-0.1
		L180.5,0c-0.9,0-1.9,0-2.8,0c-0.9,0-1.8,0-2.8,0.2c-7.3,0.7-14.5,3.3-20.4,7.8c-5.9,4.3-10.5,10.3-13.3,17l0.7,0.3
		C145,18.8,149.7,13.2,155.5,9.3z"/>
	<path class="st0" d="M202.8,73c-5.8,4-12.6,6-19.5,6.3c-0.9,0.1-1.7,0-2.6,0c-0.9,0-1.7,0-2.6-0.1l-2.5-0.4l-1.3-0.2l-1.2-0.3
		l-2.5-0.6l-2.4-0.8l-1.2-0.4c-0.4-0.2-0.8-0.4-1.1-0.5l-2.3-1.1c-5.4-2.9-10.1-7.2-13.4-12.2l3.4-2.1l-11.5-4.5l-0.7,12.4l3.5-2.2
		c4.4,5.8,10.1,10.4,16.6,13.3l2.7,1.1c0.4,0.2,0.9,0.4,1.3,0.5l1.4,0.4l2.7,0.8l2.8,0.5l1.4,0.2c0.5,0,0.9,0.1,1.4,0.1l2.8,0.2
		c0.9,0,1.9,0,2.8-0.1c0.9,0,1.9,0,2.8-0.2c7.4-0.8,14.7-3.5,20.5-8.1c5.9-4.4,10.4-10.5,13.1-17.3l-0.7-0.3
		C213.4,63.6,208.7,69.2,202.8,73z"/>
	<path class="st0" d="M12.7,32.3c-0.7-0.5-1.5-0.8-2.4-1c-1-0.2-2-0.3-3.1-0.3H0v19.9h3.9v-7.9H7c1,0,2.1-0.1,3-0.3
		c0.9-0.2,1.8-0.6,2.5-1c0.7-0.5,1.2-1.1,1.7-1.8c0.4-0.8,0.6-1.7,0.6-2.8c0-1.1-0.2-2-0.6-2.8C13.8,33.3,13.3,32.7,12.7,32.3z
		 M10.5,38.4c-0.2,0.4-0.6,0.7-1,1c-0.4,0.2-0.9,0.4-1.4,0.5c-0.5,0.1-1,0.1-1.5,0.1H3.9v-6.1h2.8c0.5,0,0.9,0,1.4,0.1
		c0.5,0.1,0.9,0.2,1.3,0.4c0.4,0.2,0.8,0.5,1,0.9c0.3,0.4,0.4,0.9,0.4,1.5C10.9,37.4,10.7,37.9,10.5,38.4z"/>
	<polygon class="st0" points="21.6,30.9 17.6,30.9 17.6,50.8 29.7,50.8 29.7,47.5 21.6,47.5 	"/>
	<path class="st0" d="M68,40.9c-0.6-0.4-1.2-0.8-2-1.1c-0.8-0.3-1.5-0.5-2.2-0.8c-0.5-0.2-1-0.3-1.4-0.5c-0.4-0.2-0.8-0.3-1.1-0.5
		c-0.4-0.2-0.6-0.5-0.8-0.8c-0.2-0.3-0.3-0.7-0.3-1.2c0-0.5,0.1-1,0.4-1.3c0.2-0.3,0.5-0.6,0.9-0.8c0.3-0.2,0.7-0.3,1.1-0.4
		c0.4-0.1,0.8-0.1,1.1-0.1c0.7,0,1.5,0.2,2.3,0.5c0.6,0.3,1.1,0.6,1.5,1l2.4-2.5c-0.8-0.6-1.6-1.1-2.6-1.4c-1.2-0.4-2.3-0.6-3.4-0.6
		c-0.9,0-1.9,0.1-2.8,0.4c-0.9,0.2-1.7,0.6-2.4,1.1c-0.7,0.5-1.3,1.1-1.7,1.9c-0.4,0.7-0.6,1.7-0.6,2.7c0,0.9,0.1,1.6,0.4,2.2
		c0.3,0.6,0.6,1.1,1.1,1.5c0.5,0.4,1,0.8,1.6,1c0.6,0.3,1.3,0.5,1.9,0.7c0.7,0.2,1.3,0.4,1.9,0.6c0.6,0.2,1.1,0.4,1.5,0.7
		c0.4,0.3,0.8,0.6,1,0.9c0.3,0.4,0.4,0.8,0.4,1.3c0,0.5-0.1,1-0.3,1.3c-0.2,0.4-0.5,0.7-0.8,0.9c-0.3,0.2-0.7,0.4-1.1,0.5
		c-0.4,0.1-0.8,0.1-1.2,0.1c-0.9,0-1.8-0.2-2.8-0.7c-0.7-0.4-1.3-0.8-1.8-1.3l-2.5,2.5c0.8,0.7,1.8,1.3,2.9,1.7
		c1.3,0.5,2.7,0.8,4.2,0.8c1,0,1.9-0.1,2.8-0.4c0.9-0.3,1.7-0.7,2.4-1.2c0.7-0.5,1.2-1.2,1.6-2C69.8,47,70,46,70,44.9
		c0-0.9-0.2-1.7-0.5-2.3C69.1,41.9,68.6,41.4,68,40.9z"/>
	<polygon class="st0" points="72.9,34.1 78.8,34.1 78.8,50.8 82.8,50.8 82.8,34.1 88.7,34.1 88.7,30.9 72.9,30.9 	"/>
	<rect x="92.1" y="30.9" class="st0" width="4" height="19.9"/>
	<path class="st0" d="M113.2,47.2c-0.8,0.4-1.8,0.7-2.9,0.7c-0.9,0-1.8-0.2-2.6-0.5c-0.8-0.3-1.5-0.8-2.1-1.5
		c-0.6-0.6-1-1.4-1.3-2.2c-0.3-0.9-0.5-1.8-0.5-2.8c0-1,0.2-1.9,0.5-2.8c0.3-0.8,0.8-1.6,1.4-2.2c0.6-0.6,1.3-1.1,2.1-1.5
		c0.8-0.4,1.7-0.5,2.7-0.5c0.9,0,1.8,0.2,2.6,0.5c0.7,0.3,1.2,0.7,1.7,1.1l2.6-2.6c-0.8-0.7-1.7-1.3-2.9-1.8
		c-1.4-0.5-2.8-0.8-4.2-0.8c-1.5,0-3,0.2-4.3,0.7c-1.3,0.5-2.5,1.2-3.4,2.1c-1,0.9-1.7,2-2.3,3.3c-0.6,1.3-0.8,2.8-0.8,4.3
		c0,1.6,0.3,3,0.8,4.3c0.5,1.3,1.3,2.4,2.2,3.3c0.9,0.9,2.1,1.6,3.4,2.1c1.3,0.5,2.7,0.8,4.3,0.8c1.7,0,3.2-0.3,4.5-0.9
		c1.1-0.5,2.1-1.2,2.9-2l-2.7-2.5C114.4,46.4,113.9,46.8,113.2,47.2z"/>
	<path class="st0" d="M186.5,39.9c0.7-0.9,1-1.9,1-3.2c0-1.1-0.2-2-0.6-2.7c-0.4-0.7-1-1.3-1.6-1.8c-0.7-0.5-1.5-0.8-2.4-1
		c-0.9-0.2-1.9-0.3-2.8-0.3h-7.4v19.9h3.8v-8.3h2.6l4.6,8.3h4.6l-5.3-8.8l0.7-0.2C184.9,41.4,185.9,40.8,186.5,39.9z M182.2,39.4
		c-0.4,0.2-0.9,0.3-1.4,0.4c-0.5,0.1-0.9,0.1-1.4,0.1h-3v-6h3.3c0.4,0,0.8,0,1.3,0.1c0.5,0.1,0.9,0.2,1.3,0.4c0.4,0.2,0.8,0.5,1,0.9
		c0.3,0.4,0.4,0.9,0.4,1.5c0,0.6-0.1,1.2-0.4,1.6C183,38.8,182.6,39.1,182.2,39.4z"/>
	<polygon class="st0" points="217.2,42.1 226,42.1 226,39.2 217.2,39.2 217.2,34 226.5,34 226.5,30.9 213.5,30.9 213.5,50.8 
		227,50.8 227,47.6 217.2,47.6 	"/>
	<polygon class="st0" points="229.6,30.9 229.6,34.1 235.5,34.1 235.5,50.8 239.5,50.8 239.5,34.1 245.4,34.1 245.4,30.9 	"/>
	<polygon class="st0" points="192.2,30.9 192.2,50.8 196,50.8 196,41.7 196,41.1 196.9,41.1 204.7,50.8 209.8,50.8 200.7,40 
		209.2,30.9 204.4,30.9 197.1,39.3 196.8,39.5 196,39.5 196,30.9 	"/>
	<polygon class="st0" points="41.2,30.9 32.8,50.8 37.1,50.8 43.2,35.3 49.2,50.8 53.6,50.8 45.3,30.9 	"/>
	<polygon class="st0" points="149,50.8 153.3,50.8 159.4,35.3 165.4,50.8 169.8,50.8 161.5,30.9 157.4,30.9 	"/>
	<polygon class="st0" points="142.8,50.8 146.5,50.8 146.5,30.9 140.2,30.9 135.5,38.7 135.3,39 134.7,39 129.9,30.9 123.6,30.9 
		123.6,50.8 127.2,50.8 127.2,34.4 133.4,44 136.7,44 142.8,34.4 	"/>
</g>
</svg>
